<svg width="50" height="50" viewBox="0 0 50 50" fill="none" xmlns="http://www.w3.org/2000/svg">
<g clip-path="url(#clip0_1_167)">
<path d="M25.2836 8.41699C27.6079 8.41699 29.4921 6.53278 29.4921 4.20849C29.4921 1.88421 27.6079 0 25.2836 0C22.9593 0 21.0751 1.88421 21.0751 4.20849C21.0751 6.53278 22.9593 8.41699 25.2836 8.41699Z" fill="white"/>
<path d="M42.1176 10.0379C37.5041 10.0379 32.887 10.0379 28.2744 10.0379C26.4995 8.88177 23.9862 8.87815 22.2294 10.0379C17.4474 10.0379 12.6636 10.0379 7.88156 10.0379C5.16892 10.0379 5.16892 14.2436 7.88156 14.2436C11.9786 14.2436 16.0757 14.2436 20.1727 14.2436C20.1727 18.2619 20.1727 22.2801 20.1727 26.2992C20.1727 26.4007 20.1827 26.4976 20.1872 26.5982C20.1854 26.6462 20.1736 26.687 20.1736 26.7359C20.1736 33.7178 20.1609 40.6996 19.8728 47.6769C19.7451 50.781 24.5552 50.7683 24.6829 47.6769C24.9094 42.2082 24.9647 36.7367 24.9783 31.2643C25.2066 31.2788 25.4349 31.2806 25.6623 31.2661C25.6768 36.7376 25.7321 42.2091 25.9577 47.6769C26.0855 50.7683 30.8946 50.781 30.7678 47.6769C30.4797 40.6996 30.467 33.7178 30.467 26.7359C30.467 26.5221 30.4407 26.3237 30.3963 26.1389C30.3963 22.1741 30.3963 18.2093 30.3963 14.2436C34.304 14.2436 38.2144 14.2436 42.1194 14.2436C44.8302 14.2436 44.8302 10.0379 42.1176 10.0379Z" fill="white"/>
</g>
<defs>
<clipPath id="clip0_1_167">
<rect width="50" height="50" fill="white"/>
</clipPath>
</defs>
</svg>
