<svg width="50" height="50" viewBox="0 0 50 50" fill="none" xmlns="http://www.w3.org/2000/svg">
<g clip-path="url(#clip0_1_177)">
<path d="M44.1713 17.3676C38.852 20.194 33.5578 23.1128 28.3856 26.2164C26.5464 24.3925 25.022 22.9407 24.6292 21.2145C24.6507 21.1114 24.5611 20.0461 24.5664 19.8954C24.5871 19.3538 24.614 18.8122 24.6714 18.2724C24.8372 16.7524 25.1116 15.2424 25.3591 13.7323C25.7609 11.2708 24.7135 8.82187 22.1229 8.12781C21.202 7.88122 20.1537 7.97447 19.2113 8.33764C18.8669 8.14933 18.4715 8.01841 18.0204 7.9682C14.2121 7.54584 10.4736 6.70741 6.88768 5.35158C3.30709 3.99843 1.7755 9.72576 5.31305 11.0637C8.81024 12.3863 12.4303 13.1575 16.1149 13.6561C16.1023 13.726 16.0907 13.796 16.0772 13.8659C11.7739 14.6918 7.55394 15.8584 3.39945 17.2896C-0.190101 18.5252 1.35225 24.2499 4.97409 23.0016C8.39058 21.8243 11.8492 20.8262 15.3625 20.0488C15.359 21.3418 15.4899 22.6161 15.8369 23.841C16.6619 26.7445 18.4652 29.0832 20.4909 31.2335C19.2552 32.0728 18.0123 32.8969 16.7067 33.608C14.3878 34.8715 11.8071 36.5528 10.9148 39.1928C9.2586 44.0942 14.3708 46.0365 16.9668 49.0288C19.4731 51.9198 23.6455 47.7116 21.1553 44.8394C19.9098 43.4037 18.2168 42.5205 16.8968 41.1781C16.262 40.5298 16.3453 41.1153 17.0394 40.4849C18.0473 39.5676 19.2166 39.0295 20.3851 38.348C24.0535 36.2103 27.496 33.6609 31.1546 31.4864C36.4174 28.3622 41.7538 25.3564 47.1592 22.4815C50.5344 20.6881 47.543 15.575 44.1713 17.3676Z" fill="white"/>
<path d="M28.0762 9.29536C30.643 9.29536 32.7239 7.21452 32.7239 4.64768C32.7239 2.08084 30.643 0 28.0762 0C25.5094 0 23.4285 2.08084 23.4285 4.64768C23.4285 7.21452 25.5094 9.29536 28.0762 9.29536Z" fill="white"/>
</g>
<defs>
<clipPath id="clip0_1_177">
<rect width="50" height="50" fill="white"/>
</clipPath>
</defs>
</svg>
