<svg width="18" height="21" viewBox="0 0 18 21" fill="none" xmlns="http://www.w3.org/2000/svg">
<path d="M7.076 9.00024C7.676 9.00024 8.162 9.45024 8.151 10.0002C8.151 10.5502 7.677 11.0002 7.076 11.0002C6.486 11.0002 6 10.5502 6 10.0002C6 9.45024 6.475 9.00024 7.076 9.00024ZM10.924 9.00024C11.525 9.00024 12 9.45024 12 10.0002C12 10.5502 11.525 11.0002 10.924 11.0002C10.334 11.0002 9.849 10.5502 9.849 10.0002C9.849 9.45024 10.323 9.00024 10.924 9.00024ZM15.891 0.000244141C17.054 0.000244141 18 0.966244 18 2.16324V21.0002L15.789 19.0052L14.544 17.8292L13.227 16.5792L13.773 18.5222H2.109C0.946 18.5222 0 17.5562 0 16.3592V2.16324C0 0.966244 0.946 0.000244141 2.109 0.000244141H15.89H15.891ZM11.921 13.7132C14.194 13.6402 15.069 12.1172 15.069 12.1172C15.069 8.73624 13.587 5.99524 13.587 5.99524C12.107 4.86224 10.697 4.89324 10.697 4.89324L10.553 5.06124C12.302 5.60724 13.114 6.39524 13.114 6.39524C12.1591 5.85723 11.1066 5.51458 10.018 5.38724C9.32744 5.30925 8.62993 5.31596 7.941 5.40724C7.879 5.40724 7.827 5.41824 7.766 5.42824C7.406 5.46024 6.531 5.59624 5.431 6.09024C5.051 6.26824 4.824 6.39524 4.824 6.39524C4.824 6.39524 5.678 5.56524 7.529 5.01924L7.426 4.89324C7.426 4.89324 6.017 4.86224 4.536 5.99624C4.536 5.99624 3.055 8.73624 3.055 12.1172C3.055 12.1172 3.919 13.6392 6.192 13.7132C6.192 13.7132 6.572 13.2412 6.882 12.8422C5.575 12.4422 5.082 11.6022 5.082 11.6022C5.082 11.6022 5.184 11.6762 5.369 11.7812C5.379 11.7912 5.389 11.8022 5.41 11.8122C5.441 11.8342 5.472 11.8442 5.503 11.8652C5.76 12.0122 6.017 12.1272 6.253 12.2222C6.675 12.3902 7.179 12.5582 7.766 12.6742C8.64532 12.8466 9.54941 12.85 10.43 12.6842C10.9429 12.5927 11.4433 12.4413 11.921 12.2332C12.281 12.0962 12.682 11.8962 13.104 11.6132C13.104 11.6132 12.59 12.4742 11.242 12.8632C11.551 13.2622 11.922 13.7132 11.922 13.7132H11.921Z" fill="white"/>
</svg>
