<svg width="652" height="508" viewBox="0 0 652 508" fill="none" xmlns="http://www.w3.org/2000/svg">
<circle cx="331" cy="258" r="165" fill="#F6D6E1"/>
<path d="M400.258 507.962C552.27 511.015 623.005 329.035 530.761 264.164C438.516 199.293 266.354 329.035 266.354 329.035C247.65 387.406 248.245 504.909 400.258 507.962Z" fill="#8985E9"/>
<g opacity="0.5">
<path d="M145 210.882L169.23 200.041L192.625 210.882L217.273 200.041L237.326 210.882L262.809 200.041L284.115 210.882L305.421 200.041L324.638 210.882L347.615 199.174" stroke="#F8B644" stroke-width="0.3"/>
<path d="M324.22 210.882L347.615 199.174L371.845 210.882L396.493 200.041L416.546 210.882L442.03 200.041L463.335 210.882L484.641 200.041L503.859 210.882L526 200.041" stroke="#F8B644" stroke-width="0.3"/>
<path d="M145 245.917L169.23 235.076L192.625 245.917L217.273 235.076L237.326 245.917L262.809 235.076L284.115 245.917L305.421 235.076L324.638 245.917L347.615 234.208" stroke="#F8B644" stroke-width="0.3"/>
<path d="M324.22 245.917L347.615 234.208L371.845 245.917L396.493 235.076L416.546 245.917L442.03 235.076L463.335 245.917L484.641 235.076L503.859 245.917L526 235.076" stroke="#F8B644" stroke-width="0.3"/>
<path d="M145 203.876L169.23 193.034L192.625 203.876L217.273 193.034L237.326 203.876L262.809 193.034L284.115 203.876L305.421 193.034L324.638 203.876L347.615 192.167" stroke="#F8B644" stroke-width="0.3"/>
<path d="M324.22 203.876L347.615 192.167L371.845 203.876L396.493 193.034L416.546 203.876L442.03 193.034L463.335 203.876L484.641 193.034L503.859 203.876L526 193.034" stroke="#F8B644" stroke-width="0.3"/>
<path d="M145 238.91L169.23 228.069L192.625 238.91L217.273 228.069L237.326 238.91L262.809 228.069L284.115 238.91L305.421 228.069L324.638 238.91L347.615 227.202" stroke="#F8B644" stroke-width="0.3"/>
<path d="M324.22 238.91L347.615 227.202L371.845 238.91L396.493 228.069L416.546 238.91L442.03 228.069L463.335 238.91L484.641 228.069L503.859 238.91L526 228.069" stroke="#F8B644" stroke-width="0.3"/>
<path d="M145 196.869L169.23 186.027L192.625 196.869L217.273 186.027L237.326 196.869L262.809 186.027L284.115 196.869L305.421 186.027L324.638 196.869L347.615 185.16" stroke="#F8B644" stroke-width="0.3"/>
<path d="M324.22 196.869L347.615 185.16L371.845 196.869L396.493 186.027L416.546 196.869L442.03 186.027L463.335 196.869L484.641 186.027L503.859 196.869L526 186.027" stroke="#F8B644" stroke-width="0.3"/>
<path d="M145 231.903L169.23 221.062L192.625 231.903L217.273 221.062L237.326 231.903L262.809 221.062L284.115 231.903L305.421 221.062L324.638 231.903L347.615 220.195" stroke="#F8B644" stroke-width="0.3"/>
<path d="M324.22 231.903L347.615 220.195L371.845 231.903L396.493 221.062L416.546 231.903L442.03 221.062L463.335 231.903L484.641 221.062L503.859 231.903L526 221.062" stroke="#F8B644" stroke-width="0.3"/>
<path d="M145 189.862L169.23 179.02L192.625 189.862L217.273 179.02L237.326 189.862L262.809 179.02L284.115 189.862L305.421 179.02L324.638 189.862L347.615 178.153" stroke="#F8B644" stroke-width="0.3"/>
<path d="M324.22 189.861L347.615 178.153L371.845 189.861L396.493 179.02L416.546 189.861L442.03 179.02L463.335 189.861L484.641 179.02L503.859 189.861L526 179.02" stroke="#F8B644" stroke-width="0.3"/>
<path d="M145 224.896L169.23 214.055L192.625 224.896L217.273 214.055L237.326 224.896L262.809 214.055L284.115 224.896L305.421 214.055L324.638 224.896L347.615 213.188" stroke="#F8B644" stroke-width="0.3"/>
<path d="M324.22 224.896L347.615 213.188L371.845 224.896L396.493 214.055L416.546 224.896L442.03 214.055L463.335 224.896L484.641 214.055L503.859 224.896L526 214.055" stroke="#F8B644" stroke-width="0.3"/>
<path d="M145 182.855L169.23 172.014L192.625 182.855L217.273 172.014L237.326 182.855L262.809 172.014L284.115 182.855L305.421 172.014L324.638 182.855L347.615 171.146" stroke="#F8B644" stroke-width="0.3"/>
<path d="M324.22 182.855L347.615 171.146L371.845 182.855L396.493 172.013L416.546 182.855L442.03 172.013L463.335 182.855L484.641 172.013L503.859 182.855L526 172.013" stroke="#F8B644" stroke-width="0.3"/>
<path d="M145 217.89L169.23 207.048L192.625 217.89L217.273 207.048L237.326 217.89L262.809 207.048L284.115 217.89L305.421 207.048L324.638 217.89L347.615 206.181" stroke="#F8B644" stroke-width="0.3"/>
<path d="M324.22 217.889L347.615 206.18L371.845 217.889L396.493 207.048L416.546 217.889L442.03 207.048L463.335 217.889L484.641 207.048L503.859 217.889L526 207.048" stroke="#F8B644" stroke-width="0.3"/>
<path d="M145 175.848L169.23 165.007L192.625 175.848L217.273 165.007L237.326 175.848L262.809 165.007L284.115 175.848L305.421 165.007L324.638 175.848L347.615 164.139" stroke="#F8B644" stroke-width="0.3"/>
<path d="M324.22 175.848L347.615 164.139L371.845 175.848L396.493 165.006L416.546 175.848L442.03 165.006L463.335 175.848L484.641 165.006L503.859 175.848L526 165.006" stroke="#F8B644" stroke-width="0.3"/>
<path d="M145 168.841L169.23 157.999L192.625 168.841L217.273 157.999L237.326 168.841L262.809 157.999L284.115 168.841L305.421 157.999L324.638 168.841L347.615 157.132" stroke="#F8B644" stroke-width="0.3"/>
<path d="M324.22 168.841L347.615 157.132L371.845 168.841L396.493 158L416.546 168.841L442.03 158L463.335 168.841L484.641 158L503.859 168.841L526 158" stroke="#F8B644" stroke-width="0.3"/>
<path d="M145 161.834L169.23 150.992L192.625 161.834L217.273 150.992L237.326 161.834L262.809 150.992L284.115 161.834L305.421 150.992L324.638 161.834L347.615 150.125" stroke="#F8B644" stroke-width="0.3"/>
<path d="M324.22 161.834L347.615 150.125L371.845 161.834L396.493 150.992L416.546 161.834L442.03 150.992L463.335 161.834L484.641 150.992L503.859 161.834L526 150.992" stroke="#F8B644" stroke-width="0.3"/>
<path d="M145 154.827L169.23 143.985L192.625 154.827L217.273 143.985L237.326 154.827L262.809 143.985L284.115 154.827L305.421 143.985L324.638 154.827L347.615 143.118" stroke="#F8B644" stroke-width="0.3"/>
<path d="M324.22 154.827L347.615 143.118L371.845 154.827L396.493 143.985L416.546 154.827L442.03 143.985L463.335 154.827L484.641 143.985L503.859 154.827L526 143.985" stroke="#F8B644" stroke-width="0.3"/>
<path d="M145 147.82L169.23 136.978L192.625 147.82L217.273 136.978L237.326 147.82L262.809 136.978L284.115 147.82L305.421 136.978L324.638 147.82L347.615 136.111" stroke="#F8B644" stroke-width="0.3"/>
<path d="M324.22 147.82L347.615 136.111L371.845 147.82L396.493 136.979L416.546 147.82L442.03 136.979L463.335 147.82L484.641 136.979L503.859 147.82L526 136.979" stroke="#F8B644" stroke-width="0.3"/>
<path d="M145 140.813L169.23 129.972L192.625 140.813L217.273 129.972L237.326 140.813L262.809 129.972L284.115 140.813L305.421 129.972L324.638 140.813L347.615 129.104" stroke="#F8B644" stroke-width="0.3"/>
<path d="M324.22 140.813L347.615 129.104L371.845 140.813L396.493 129.972L416.546 140.813L442.03 129.972L463.335 140.813L484.641 129.972L503.859 140.813L526 129.972" stroke="#F8B644" stroke-width="0.3"/>
<path d="M145 133.806L169.23 122.965L192.625 133.806L217.273 122.965L237.326 133.806L262.809 122.965L284.115 133.806L305.421 122.965L324.638 133.806L347.615 122.097" stroke="#F8B644" stroke-width="0.3"/>
<path d="M324.22 133.806L347.615 122.097L371.845 133.806L396.493 122.965L416.546 133.806L442.03 122.965L463.335 133.806L484.641 122.965L503.859 133.806L526 122.965" stroke="#F8B644" stroke-width="0.3"/>
<path d="M145 126.799L169.23 115.958L192.625 126.799L217.273 115.958L237.326 126.799L262.809 115.958L284.115 126.799L305.421 115.958L324.638 126.799L347.615 115.09" stroke="#F8B644" stroke-width="0.3"/>
<path d="M324.22 126.799L347.615 115.09L371.845 126.799L396.493 115.958L416.546 126.799L442.03 115.958L463.335 126.799L484.641 115.958L503.859 126.799L526 115.958" stroke="#F8B644" stroke-width="0.3"/>
<path d="M145 119.792L169.23 108.951L192.625 119.792L217.273 108.951L237.326 119.792L262.809 108.951L284.115 119.792L305.421 108.951L324.638 119.792L347.615 108.084" stroke="#F8B644" stroke-width="0.3"/>
<path d="M324.22 119.792L347.615 108.083L371.845 119.792L396.493 108.951L416.546 119.792L442.03 108.951L463.335 119.792L484.641 108.951L503.859 119.792L526 108.951" stroke="#F8B644" stroke-width="0.3"/>
<path d="M145 112.785L169.23 101.944L192.625 112.785L217.273 101.944L237.326 112.785L262.809 101.944L284.115 112.785L305.421 101.944L324.638 112.785L347.615 101.077" stroke="#F8B644" stroke-width="0.3"/>
<path d="M324.22 112.785L347.615 101.077L371.845 112.785L396.493 101.944L416.546 112.785L442.03 101.944L463.335 112.785L484.641 101.944L503.859 112.785L526 101.944" stroke="#F8B644" stroke-width="0.3"/>
<path d="M145 105.778L169.23 94.9368L192.625 105.778L217.273 94.9368L237.326 105.778L262.809 94.9368L284.115 105.778L305.421 94.9368L324.638 105.778L347.615 94.0695" stroke="#F8B644" stroke-width="0.3"/>
<path d="M324.22 105.778L347.615 94.0695L371.845 105.778L396.493 94.9369L416.546 105.778L442.03 94.9369L463.335 105.778L484.641 94.9369L503.859 105.778L526 94.9369" stroke="#F8B644" stroke-width="0.3"/>
<path d="M145 98.7712L169.23 87.9298L192.625 98.7712L217.273 87.9298L237.326 98.7712L262.809 87.9298L284.115 98.7712L305.421 87.9298L324.638 98.7712L347.615 87.0625" stroke="#F8B644" stroke-width="0.3"/>
<path d="M324.22 98.7712L347.615 87.0624L371.845 98.7712L396.493 87.9298L416.546 98.7712L442.03 87.9298L463.335 98.7712L484.641 87.9298L503.859 98.7712L526 87.9298" stroke="#F8B644" stroke-width="0.3"/>
<path d="M145 91.7644L169.23 80.923L192.625 91.7644L217.273 80.923L237.326 91.7644L262.809 80.923L284.115 91.7644L305.421 80.923L324.638 91.7644L347.615 80.0557" stroke="#F8B644" stroke-width="0.3"/>
<path d="M324.22 91.7645L347.615 80.0558L371.845 91.7645L396.493 80.9231L416.546 91.7645L442.03 80.9231L463.335 91.7645L484.641 80.9231L503.859 91.7645L526 80.9231" stroke="#F8B644" stroke-width="0.3"/>
<path d="M145 84.7574L169.23 73.916L192.625 84.7574L217.273 73.916L237.326 84.7574L262.809 73.916L284.115 84.7574L305.421 73.916L324.638 84.7574L347.615 73.0487" stroke="#F8B644" stroke-width="0.3"/>
<path d="M324.22 84.7574L347.615 73.0486L371.845 84.7574L396.493 73.916L416.546 84.7574L442.03 73.916L463.335 84.7574L484.641 73.916L503.859 84.7574L526 73.916" stroke="#F8B644" stroke-width="0.3"/>
<path d="M145 77.7504L169.23 66.909L192.625 77.7504L217.273 66.909L237.326 77.7504L262.809 66.909L284.115 77.7504L305.421 66.909L324.638 77.7504L347.615 66.0417" stroke="#F8B644" stroke-width="0.3"/>
<path d="M324.22 77.7504L347.615 66.0417L371.845 77.7504L396.493 66.909L416.546 77.7504L442.03 66.909L463.335 77.7504L484.641 66.909L503.859 77.7504L526 66.909" stroke="#F8B644" stroke-width="0.3"/>
<path d="M145 70.7435L169.23 59.9021L192.625 70.7435L217.273 59.9021L237.326 70.7435L262.809 59.9021L284.115 70.7435L305.421 59.9021L324.638 70.7435L347.615 59.0348" stroke="#F8B644" stroke-width="0.3"/>
<path d="M324.22 70.7434L347.615 59.0347L371.845 70.7434L396.493 59.902L416.546 70.7434L442.03 59.902L463.335 70.7434L484.641 59.902L503.859 70.7434L526 59.902" stroke="#F8B644" stroke-width="0.3"/>
<path d="M145 63.7366L169.23 52.8952L192.625 63.7366L217.273 52.8952L237.326 63.7366L262.809 52.8952L284.115 63.7366L305.421 52.8952L324.638 63.7366L347.615 52.0279" stroke="#F8B644" stroke-width="0.3"/>
<path d="M324.22 63.7366L347.615 52.0279L371.845 63.7366L396.493 52.8952L416.546 63.7366L442.03 52.8952L463.335 63.7366L484.641 52.8952L503.859 63.7366L526 52.8952" stroke="#F8B644" stroke-width="0.3"/>
<path d="M145 56.7295L169.23 45.8881L192.625 56.7295L217.273 45.8881L237.326 56.7295L262.809 45.8881L284.115 56.7295L305.421 45.8881L324.638 56.7295L347.615 45.0208" stroke="#F8B644" stroke-width="0.3"/>
<path d="M324.22 56.7295L347.615 45.0208L371.845 56.7295L396.493 45.8881L416.546 56.7295L442.03 45.8881L463.335 56.7295L484.641 45.8881L503.859 56.7295L526 45.8881" stroke="#F8B644" stroke-width="0.3"/>
<path d="M145 49.7227L169.23 38.8813L192.625 49.7227L217.273 38.8813L237.326 49.7227L262.809 38.8813L284.115 49.7227L305.421 38.8813L324.638 49.7227L347.615 38.0139" stroke="#F8B644" stroke-width="0.3"/>
<path d="M324.22 49.7227L347.615 38.014L371.845 49.7227L396.493 38.8813L416.546 49.7227L442.03 38.8813L463.335 49.7227L484.641 38.8813L503.859 49.7227L526 38.8813" stroke="#F8B644" stroke-width="0.3"/>
<path d="M145 42.7156L169.23 31.8742L192.625 42.7156L217.273 31.8742L237.326 42.7156L262.809 31.8742L284.115 42.7156L305.421 31.8742L324.638 42.7156L347.615 31.0069" stroke="#F8B644" stroke-width="0.3"/>
<path d="M324.22 42.7156L347.615 31.0069L371.845 42.7156L396.493 31.8742L416.546 42.7156L442.03 31.8742L463.335 42.7156L484.641 31.8742L503.859 42.7156L526 31.8742" stroke="#F8B644" stroke-width="0.3"/>
<path d="M145 35.7087L169.231 24.8673L192.626 35.7087L217.274 24.8673L237.326 35.7087L262.81 24.8673L284.116 35.7087L305.422 24.8673L324.639 35.7087L347.616 24" stroke="#F8B644" stroke-width="0.3"/>
<path d="M324.221 35.7087L347.615 24L371.846 35.7087L396.494 24.8673L416.546 35.7087L442.03 24.8673L463.336 35.7087L484.642 24.8673L503.859 35.7087L526 24.8673" stroke="#F8B644" stroke-width="0.3"/>
<path d="M145 428.105L169.23 417.264L192.625 428.105L217.273 417.264L237.326 428.105L262.809 417.264L284.115 428.105L305.421 417.264L324.638 428.105L347.615 416.397" stroke="#F8B644" stroke-width="0.3"/>
<path d="M324.22 428.105L347.615 416.397L371.845 428.105L396.493 417.264L416.546 428.105L442.03 417.264L463.335 428.105L484.641 417.264L503.859 428.105L526 417.264" stroke="#F8B644" stroke-width="0.3"/>
<path d="M145 463.14L169.23 452.299L192.625 463.14L217.273 452.299L237.326 463.14L262.809 452.299L284.115 463.14L305.421 452.299L324.638 463.14L347.615 451.431" stroke="#F8B644" stroke-width="0.3"/>
<path d="M324.22 463.14L347.615 451.432L371.845 463.14L396.493 452.299L416.546 463.14L442.03 452.299L463.335 463.14L484.641 452.299L503.859 463.14L526 452.299" stroke="#F8B644" stroke-width="0.3"/>
<path d="M145 421.098L169.23 410.257L192.625 421.098L217.273 410.257L237.326 421.098L262.809 410.257L284.115 421.098L305.421 410.257L324.638 421.098L347.615 409.39" stroke="#F8B644" stroke-width="0.3"/>
<path d="M324.22 421.098L347.615 409.39L371.845 421.098L396.493 410.257L416.546 421.098L442.03 410.257L463.335 421.098L484.641 410.257L503.859 421.098L526 410.257" stroke="#F8B644" stroke-width="0.3"/>
<path d="M145 456.133L169.23 445.292L192.625 456.133L217.273 445.292L237.326 456.133L262.809 445.292L284.115 456.133L305.421 445.292L324.638 456.133L347.615 444.425" stroke="#F8B644" stroke-width="0.3"/>
<path d="M324.22 456.133L347.615 444.425L371.845 456.133L396.493 445.292L416.546 456.133L442.03 445.292L463.335 456.133L484.641 445.292L503.859 456.133L526 445.292" stroke="#F8B644" stroke-width="0.3"/>
<path d="M145 414.091L169.23 403.25L192.625 414.091L217.273 403.25L237.326 414.091L262.809 403.25L284.115 414.091L305.421 403.25L324.638 414.091L347.615 402.383" stroke="#F8B644" stroke-width="0.3"/>
<path d="M324.22 414.091L347.615 402.383L371.845 414.091L396.493 403.25L416.546 414.091L442.03 403.25L463.335 414.091L484.641 403.25L503.859 414.091L526 403.25" stroke="#F8B644" stroke-width="0.3"/>
<path d="M145 449.126L169.23 438.285L192.625 449.126L217.273 438.285L237.326 449.126L262.809 438.285L284.115 449.126L305.421 438.285L324.638 449.126L347.615 437.417" stroke="#F8B644" stroke-width="0.3"/>
<path d="M324.22 449.126L347.615 437.417L371.845 449.126L396.493 438.285L416.546 449.126L442.03 438.285L463.335 449.126L484.641 438.285L503.859 449.126L526 438.285" stroke="#F8B644" stroke-width="0.3"/>
<path d="M145 407.084L169.23 396.243L192.625 407.084L217.273 396.243L237.326 407.084L262.809 396.243L284.115 407.084L305.421 396.243L324.638 407.084L347.615 395.376" stroke="#F8B644" stroke-width="0.3"/>
<path d="M324.22 407.085L347.615 395.376L371.845 407.085L396.493 396.243L416.546 407.085L442.03 396.243L463.335 407.085L484.641 396.243L503.859 407.085L526 396.243" stroke="#F8B644" stroke-width="0.3"/>
<path d="M145 442.119L169.23 431.278L192.625 442.119L217.273 431.278L237.326 442.119L262.809 431.278L284.115 442.119L305.421 431.278L324.638 442.119L347.615 430.41" stroke="#F8B644" stroke-width="0.3"/>
<path d="M324.22 442.119L347.615 430.41L371.845 442.119L396.493 431.278L416.546 442.119L442.03 431.278L463.335 442.119L484.641 431.278L503.859 442.119L526 431.278" stroke="#F8B644" stroke-width="0.3"/>
<path d="M145 400.078L169.23 389.236L192.625 400.078L217.273 389.236L237.326 400.078L262.809 389.236L284.115 400.078L305.421 389.236L324.638 400.078L347.615 388.369" stroke="#F8B644" stroke-width="0.3"/>
<path d="M324.22 400.078L347.615 388.369L371.845 400.078L396.493 389.236L416.546 400.078L442.03 389.236L463.335 400.078L484.641 389.236L503.859 400.078L526 389.236" stroke="#F8B644" stroke-width="0.3"/>
<path d="M145 435.112L169.23 424.271L192.625 435.112L217.273 424.271L237.326 435.112L262.809 424.271L284.115 435.112L305.421 424.271L324.638 435.112L347.615 423.404" stroke="#F8B644" stroke-width="0.3"/>
<path d="M324.22 435.112L347.615 423.404L371.845 435.112L396.493 424.271L416.546 435.112L442.03 424.271L463.335 435.112L484.641 424.271L503.859 435.112L526 424.271" stroke="#F8B644" stroke-width="0.3"/>
<path d="M145 393.07L169.23 382.229L192.625 393.07L217.273 382.229L237.326 393.07L262.809 382.229L284.115 393.07L305.421 382.229L324.638 393.07L347.615 381.362" stroke="#F8B644" stroke-width="0.3"/>
<path d="M324.22 393.07L347.615 381.362L371.845 393.07L396.493 382.229L416.546 393.07L442.03 382.229L463.335 393.07L484.641 382.229L503.859 393.07L526 382.229" stroke="#F8B644" stroke-width="0.3"/>
<path d="M145 386.063L169.23 375.222L192.625 386.063L217.273 375.222L237.326 386.063L262.809 375.222L284.115 386.063L305.421 375.222L324.638 386.063L347.615 374.355" stroke="#F8B644" stroke-width="0.3"/>
<path d="M324.22 386.063L347.615 374.355L371.845 386.063L396.493 375.222L416.546 386.063L442.03 375.222L463.335 386.063L484.641 375.222L503.859 386.063L526 375.222" stroke="#F8B644" stroke-width="0.3"/>
<path d="M145 379.057L169.23 368.215L192.625 379.057L217.273 368.215L237.326 379.057L262.809 368.215L284.115 379.057L305.421 368.215L324.638 379.057L347.615 367.348" stroke="#F8B644" stroke-width="0.3"/>
<path d="M324.22 379.057L347.615 367.348L371.845 379.057L396.493 368.215L416.546 379.057L442.03 368.215L463.335 379.057L484.641 368.215L503.859 379.057L526 368.215" stroke="#F8B644" stroke-width="0.3"/>
<path d="M145 372.05L169.23 361.208L192.625 372.05L217.273 361.208L237.326 372.05L262.809 361.208L284.115 372.05L305.421 361.208L324.638 372.05L347.615 360.341" stroke="#F8B644" stroke-width="0.3"/>
<path d="M324.22 372.05L347.615 360.341L371.845 372.05L396.493 361.208L416.546 372.05L442.03 361.208L463.335 372.05L484.641 361.208L503.859 372.05L526 361.208" stroke="#F8B644" stroke-width="0.3"/>
<path d="M145 365.043L169.23 354.201L192.625 365.043L217.273 354.201L237.326 365.043L262.809 354.201L284.115 365.043L305.421 354.201L324.638 365.043L347.615 353.334" stroke="#F8B644" stroke-width="0.3"/>
<path d="M324.22 365.043L347.615 353.334L371.845 365.043L396.493 354.201L416.546 365.043L442.03 354.201L463.335 365.043L484.641 354.201L503.859 365.043L526 354.201" stroke="#F8B644" stroke-width="0.3"/>
<path d="M145 358.036L169.23 347.194L192.625 358.036L217.273 347.194L237.326 358.036L262.809 347.194L284.115 358.036L305.421 347.194L324.638 358.036L347.615 346.327" stroke="#F8B644" stroke-width="0.3"/>
<path d="M324.22 358.036L347.615 346.327L371.845 358.036L396.493 347.194L416.546 358.036L442.03 347.194L463.335 358.036L484.641 347.194L503.859 358.036L526 347.194" stroke="#F8B644" stroke-width="0.3"/>
<path d="M145 351.029L169.23 340.188L192.625 351.029L217.273 340.188L237.326 351.029L262.809 340.188L284.115 351.029L305.421 340.188L324.638 351.029L347.615 339.32" stroke="#F8B644" stroke-width="0.3"/>
<path d="M324.22 351.029L347.615 339.32L371.845 351.029L396.493 340.188L416.546 351.029L442.03 340.188L463.335 351.029L484.641 340.188L503.859 351.029L526 340.188" stroke="#F8B644" stroke-width="0.3"/>
<path d="M145 344.022L169.23 333.181L192.625 344.022L217.273 333.181L237.326 344.022L262.809 333.181L284.115 344.022L305.421 333.181L324.638 344.022L347.615 332.313" stroke="#F8B644" stroke-width="0.3"/>
<path d="M324.22 344.022L347.615 332.313L371.845 344.022L396.493 333.181L416.546 344.022L442.03 333.181L463.335 344.022L484.641 333.181L503.859 344.022L526 333.181" stroke="#F8B644" stroke-width="0.3"/>
<path d="M145 337.015L169.23 326.174L192.625 337.015L217.273 326.174L237.326 337.015L262.809 326.174L284.115 337.015L305.421 326.174L324.638 337.015L347.615 325.306" stroke="#F8B644" stroke-width="0.3"/>
<path d="M324.22 337.015L347.615 325.306L371.845 337.015L396.493 326.174L416.546 337.015L442.03 326.174L463.335 337.015L484.641 326.174L503.859 337.015L526 326.174" stroke="#F8B644" stroke-width="0.3"/>
<path d="M145 330.008L169.23 319.167L192.625 330.008L217.273 319.167L237.326 330.008L262.809 319.167L284.115 330.008L305.421 319.167L324.638 330.008L347.615 318.299" stroke="#F8B644" stroke-width="0.3"/>
<path d="M324.22 330.008L347.615 318.299L371.845 330.008L396.493 319.167L416.546 330.008L442.03 319.167L463.335 330.008L484.641 319.167L503.859 330.008L526 319.167" stroke="#F8B644" stroke-width="0.3"/>
<path d="M145 323.001L169.23 312.16L192.625 323.001L217.273 312.16L237.326 323.001L262.809 312.16L284.115 323.001L305.421 312.16L324.638 323.001L347.615 311.293" stroke="#F8B644" stroke-width="0.3"/>
<path d="M324.22 323.001L347.615 311.292L371.845 323.001L396.493 312.16L416.546 323.001L442.03 312.16L463.335 323.001L484.641 312.16L503.859 323.001L526 312.16" stroke="#F8B644" stroke-width="0.3"/>
<path d="M145 315.994L169.23 305.153L192.625 315.994L217.273 305.153L237.326 315.994L262.809 305.153L284.115 315.994L305.421 305.153L324.638 315.994L347.615 304.286" stroke="#F8B644" stroke-width="0.3"/>
<path d="M324.22 315.994L347.615 304.286L371.845 315.994L396.493 305.153L416.546 315.994L442.03 305.153L463.335 315.994L484.641 305.153L503.859 315.994L526 305.153" stroke="#F8B644" stroke-width="0.3"/>
<path d="M145 308.987L169.23 298.146L192.625 308.987L217.273 298.146L237.326 308.987L262.809 298.146L284.115 308.987L305.421 298.146L324.638 308.987L347.615 297.279" stroke="#F8B644" stroke-width="0.3"/>
<path d="M324.22 308.987L347.615 297.279L371.845 308.987L396.493 298.146L416.546 308.987L442.03 298.146L463.335 308.987L484.641 298.146L503.859 308.987L526 298.146" stroke="#F8B644" stroke-width="0.3"/>
<path d="M145 301.98L169.23 291.139L192.625 301.98L217.273 291.139L237.326 301.98L262.809 291.139L284.115 301.98L305.421 291.139L324.638 301.98L347.615 290.271" stroke="#F8B644" stroke-width="0.3"/>
<path d="M324.22 301.98L347.615 290.272L371.845 301.98L396.493 291.139L416.546 301.98L442.03 291.139L463.335 301.98L484.641 291.139L503.859 301.98L526 291.139" stroke="#F8B644" stroke-width="0.3"/>
<path d="M145 294.973L169.23 284.132L192.625 294.973L217.273 284.132L237.326 294.973L262.809 284.132L284.115 294.973L305.421 284.132L324.638 294.973L347.615 283.265" stroke="#F8B644" stroke-width="0.3"/>
<path d="M324.22 294.973L347.615 283.265L371.845 294.973L396.493 284.132L416.546 294.973L442.03 284.132L463.335 294.973L484.641 284.132L503.859 294.973L526 284.132" stroke="#F8B644" stroke-width="0.3"/>
<path d="M145 287.966L169.23 277.125L192.625 287.966L217.273 277.125L237.326 287.966L262.809 277.125L284.115 287.966L305.421 277.125L324.638 287.966L347.615 276.258" stroke="#F8B644" stroke-width="0.3"/>
<path d="M324.22 287.966L347.615 276.258L371.845 287.966L396.493 277.125L416.546 287.966L442.03 277.125L463.335 287.966L484.641 277.125L503.859 287.966L526 277.125" stroke="#F8B644" stroke-width="0.3"/>
<path d="M145 280.959L169.23 270.118L192.625 280.959L217.273 270.118L237.326 280.959L262.809 270.118L284.115 280.959L305.421 270.118L324.638 280.959L347.615 269.251" stroke="#F8B644" stroke-width="0.3"/>
<path d="M324.22 280.959L347.615 269.251L371.845 280.959L396.493 270.118L416.546 280.959L442.03 270.118L463.335 280.959L484.641 270.118L503.859 280.959L526 270.118" stroke="#F8B644" stroke-width="0.3"/>
<path d="M145 273.953L169.23 263.111L192.625 273.953L217.273 263.111L237.326 273.953L262.809 263.111L284.115 273.953L305.421 263.111L324.638 273.953L347.615 262.244" stroke="#F8B644" stroke-width="0.3"/>
<path d="M324.22 273.953L347.615 262.244L371.845 273.953L396.493 263.111L416.546 273.953L442.03 263.111L463.335 273.953L484.641 263.111L503.859 273.953L526 263.111" stroke="#F8B644" stroke-width="0.3"/>
<path d="M145 266.946L169.23 256.104L192.625 266.946L217.273 256.104L237.326 266.946L262.809 256.104L284.115 266.946L305.421 256.104L324.638 266.946L347.615 255.237" stroke="#F8B644" stroke-width="0.3"/>
<path d="M324.22 266.945L347.615 255.237L371.845 266.945L396.493 256.104L416.546 266.945L442.03 256.104L463.335 266.945L484.641 256.104L503.859 266.945L526 256.104" stroke="#F8B644" stroke-width="0.3"/>
<path d="M145 259.939L169.23 249.097L192.625 259.939L217.273 249.097L237.326 259.939L262.809 249.097L284.115 259.939L305.421 249.097L324.638 259.939L347.615 248.23" stroke="#F8B644" stroke-width="0.3"/>
<path d="M324.22 259.939L347.615 248.23L371.845 259.939L396.493 249.097L416.546 259.939L442.03 249.097L463.335 259.939L484.641 249.097L503.859 259.939L526 249.097" stroke="#F8B644" stroke-width="0.3"/>
<path d="M145 252.932L169.231 242.09L192.626 252.932L217.274 242.09L237.326 252.932L262.81 242.09L284.116 252.932L305.422 242.09L324.639 252.932L347.616 241.223" stroke="#F8B644" stroke-width="0.3"/>
<path d="M324.221 252.932L347.615 241.223L371.846 252.932L396.494 242.09L416.546 252.932L442.03 242.09L463.336 252.932L484.642 242.09L503.859 252.932L526 242.09" stroke="#F8B644" stroke-width="0.3"/>
</g>
<rect x="130" y="24" width="431" height="482"/>
<g filter="url(#filter0_d_209_3)">
<rect x="80" y="60" width="203" height="80" rx="10" fill="white"/>
</g>
<path d="M182.056 92.112C181.235 92.112 180.499 91.9787 179.848 91.712C179.197 91.4453 178.675 91.0507 178.28 90.528C177.896 90.0053 177.693 89.376 177.672 88.64H180.584C180.627 89.056 180.771 89.376 181.016 89.6C181.261 89.8133 181.581 89.92 181.976 89.92C182.381 89.92 182.701 89.8293 182.936 89.648C183.171 89.456 183.288 89.1947 183.288 88.864C183.288 88.5867 183.192 88.3573 183 88.176C182.819 87.9947 182.589 87.8453 182.312 87.728C182.045 87.6107 181.661 87.4773 181.16 87.328C180.435 87.104 179.843 86.88 179.384 86.656C178.925 86.432 178.531 86.1013 178.2 85.664C177.869 85.2267 177.704 84.656 177.704 83.952C177.704 82.9067 178.083 82.0907 178.84 81.504C179.597 80.9067 180.584 80.608 181.8 80.608C183.037 80.608 184.035 80.9067 184.792 81.504C185.549 82.0907 185.955 82.912 186.008 83.968H183.048C183.027 83.6053 182.893 83.3227 182.648 83.12C182.403 82.9067 182.088 82.8 181.704 82.8C181.373 82.8 181.107 82.8907 180.904 83.072C180.701 83.2427 180.6 83.4933 180.6 83.824C180.6 84.1867 180.771 84.4693 181.112 84.672C181.453 84.8747 181.987 85.0933 182.712 85.328C183.437 85.5733 184.024 85.808 184.472 86.032C184.931 86.256 185.325 86.5813 185.656 87.008C185.987 87.4347 186.152 87.984 186.152 88.656C186.152 89.296 185.987 89.8773 185.656 90.4C185.336 90.9227 184.867 91.3387 184.248 91.648C183.629 91.9573 182.899 92.112 182.056 92.112ZM192.972 89.68V92H191.58C190.588 92 189.814 91.76 189.26 91.28C188.705 90.7893 188.428 89.9947 188.428 88.896V85.344H187.34V83.072H188.428V80.896H191.164V83.072H192.956V85.344H191.164V88.928C191.164 89.1947 191.228 89.3867 191.356 89.504C191.484 89.6213 191.697 89.68 191.996 89.68H192.972ZM197.392 84.56C197.712 84.0693 198.112 83.6853 198.592 83.408C199.072 83.12 199.605 82.976 200.192 82.976V85.872H199.44C198.757 85.872 198.245 86.0213 197.904 86.32C197.562 86.608 197.392 87.12 197.392 87.856V92H194.656V83.072H197.392V84.56ZM210.075 87.392C210.075 87.648 210.059 87.9147 210.028 88.192H203.835C203.878 88.7467 204.054 89.1733 204.363 89.472C204.683 89.76 205.073 89.904 205.531 89.904C206.214 89.904 206.689 89.616 206.955 89.04H209.868C209.718 89.6267 209.446 90.1547 209.052 90.624C208.668 91.0933 208.182 91.4613 207.595 91.728C207.009 91.9947 206.353 92.128 205.627 92.128C204.753 92.128 203.974 91.9413 203.291 91.568C202.609 91.1947 202.075 90.6613 201.691 89.968C201.307 89.2747 201.115 88.464 201.115 87.536C201.115 86.608 201.302 85.7973 201.675 85.104C202.059 84.4107 202.593 83.8773 203.275 83.504C203.958 83.1307 204.742 82.944 205.627 82.944C206.491 82.944 207.26 83.1253 207.931 83.488C208.603 83.8507 209.126 84.368 209.5 85.04C209.883 85.712 210.075 86.496 210.075 87.392ZM207.275 86.672C207.275 86.2027 207.115 85.8293 206.795 85.552C206.475 85.2747 206.075 85.136 205.595 85.136C205.137 85.136 204.747 85.2693 204.427 85.536C204.118 85.8027 203.926 86.1813 203.851 86.672H207.275ZM216.655 89.68V92H215.263C214.271 92 213.498 91.76 212.943 91.28C212.388 90.7893 212.111 89.9947 212.111 88.896V85.344H211.023V83.072H212.111V80.896H214.847V83.072H216.639V85.344H214.847V88.928C214.847 89.1947 214.911 89.3867 215.039 89.504C215.167 89.6213 215.38 89.68 215.679 89.68H216.655ZM217.795 87.536C217.795 86.608 217.982 85.7973 218.355 85.104C218.739 84.4107 219.267 83.8773 219.939 83.504C220.622 83.1307 221.4 82.944 222.275 82.944C223.395 82.944 224.328 83.2373 225.075 83.824C225.832 84.4107 226.328 85.2373 226.563 86.304H223.651C223.406 85.6213 222.931 85.28 222.227 85.28C221.726 85.28 221.326 85.4773 221.027 85.872C220.728 86.256 220.579 86.8107 220.579 87.536C220.579 88.2613 220.728 88.8213 221.027 89.216C221.326 89.6 221.726 89.792 222.227 89.792C222.931 89.792 223.406 89.4507 223.651 88.768H226.563C226.328 89.8133 225.832 90.6347 225.075 91.232C224.318 91.8293 223.384 92.128 222.275 92.128C221.4 92.128 220.622 91.9413 219.939 91.568C219.267 91.1947 218.739 90.6613 218.355 89.968C217.982 89.2747 217.795 88.464 217.795 87.536ZM233.674 82.976C234.698 82.976 235.52 83.3173 236.138 84C236.757 84.672 237.066 85.6 237.066 86.784V92H234.346V87.152C234.346 86.5547 234.192 86.0907 233.882 85.76C233.573 85.4293 233.157 85.264 232.634 85.264C232.112 85.264 231.696 85.4293 231.386 85.76C231.077 86.0907 230.922 86.5547 230.922 87.152V92H228.186V80.16H230.922V84.272C231.2 83.8773 231.578 83.5627 232.058 83.328C232.538 83.0933 233.077 82.976 233.674 82.976Z" fill="#262524"/>
<path opacity="0.5" d="M183.78 109.636L181.056 114.844V118H179.964V114.844L177.228 109.636H178.44L180.504 113.872L182.568 109.636H183.78ZM187.92 118.108C187.304 118.108 186.744 117.968 186.24 117.688C185.744 117.408 185.352 117.012 185.064 116.5C184.784 115.98 184.644 115.38 184.644 114.7C184.644 114.028 184.788 113.436 185.076 112.924C185.372 112.404 185.772 112.008 186.276 111.736C186.78 111.456 187.344 111.316 187.968 111.316C188.592 111.316 189.156 111.456 189.66 111.736C190.164 112.008 190.56 112.4 190.848 112.912C191.144 113.424 191.292 114.02 191.292 114.7C191.292 115.38 191.14 115.98 190.836 116.5C190.54 117.012 190.136 117.408 189.624 117.688C189.112 117.968 188.544 118.108 187.92 118.108ZM187.92 117.148C188.312 117.148 188.68 117.056 189.024 116.872C189.368 116.688 189.644 116.412 189.852 116.044C190.068 115.676 190.176 115.228 190.176 114.7C190.176 114.172 190.072 113.724 189.864 113.356C189.656 112.988 189.384 112.716 189.048 112.54C188.712 112.356 188.348 112.264 187.956 112.264C187.556 112.264 187.188 112.356 186.852 112.54C186.524 112.716 186.26 112.988 186.06 113.356C185.86 113.724 185.76 114.172 185.76 114.7C185.76 115.236 185.856 115.688 186.048 116.056C186.248 116.424 186.512 116.7 186.84 116.884C187.168 117.06 187.528 117.148 187.92 117.148ZM198.68 111.424V118H197.588V117.028C197.38 117.364 197.088 117.628 196.712 117.82C196.344 118.004 195.936 118.096 195.488 118.096C194.976 118.096 194.516 117.992 194.108 117.784C193.7 117.568 193.376 117.248 193.136 116.824C192.904 116.4 192.788 115.884 192.788 115.276V111.424H193.868V115.132C193.868 115.78 194.032 116.28 194.36 116.632C194.688 116.976 195.136 117.148 195.704 117.148C196.288 117.148 196.748 116.968 197.084 116.608C197.42 116.248 197.588 115.724 197.588 115.036V111.424H198.68ZM201.735 112.492C201.927 112.116 202.199 111.824 202.551 111.616C202.911 111.408 203.347 111.304 203.859 111.304V112.432H203.571C202.347 112.432 201.735 113.096 201.735 114.424V118H200.643V111.424H201.735V112.492ZM209.651 112.648C209.875 112.256 210.203 111.936 210.635 111.688C211.067 111.44 211.559 111.316 212.111 111.316C212.703 111.316 213.235 111.456 213.707 111.736C214.179 112.016 214.551 112.412 214.823 112.924C215.095 113.428 215.231 114.016 215.231 114.688C215.231 115.352 215.095 115.944 214.823 116.464C214.551 116.984 214.175 117.388 213.695 117.676C213.223 117.964 212.695 118.108 212.111 118.108C211.543 118.108 211.043 117.984 210.611 117.736C210.187 117.488 209.867 117.172 209.651 116.788V118H208.559V109.12H209.651V112.648ZM214.115 114.688C214.115 114.192 214.015 113.76 213.815 113.392C213.615 113.024 213.343 112.744 212.999 112.552C212.663 112.36 212.291 112.264 211.883 112.264C211.483 112.264 211.111 112.364 210.767 112.564C210.431 112.756 210.159 113.04 209.951 113.416C209.751 113.784 209.651 114.212 209.651 114.7C209.651 115.196 209.751 115.632 209.951 116.008C210.159 116.376 210.431 116.66 210.767 116.86C211.111 117.052 211.483 117.148 211.883 117.148C212.291 117.148 212.663 117.052 212.999 116.86C213.343 116.66 213.615 116.376 213.815 116.008C214.015 115.632 214.115 115.192 214.115 114.688ZM219.657 118.108C219.041 118.108 218.481 117.968 217.977 117.688C217.481 117.408 217.089 117.012 216.801 116.5C216.521 115.98 216.381 115.38 216.381 114.7C216.381 114.028 216.525 113.436 216.813 112.924C217.109 112.404 217.509 112.008 218.013 111.736C218.517 111.456 219.081 111.316 219.705 111.316C220.329 111.316 220.893 111.456 221.397 111.736C221.901 112.008 222.297 112.4 222.585 112.912C222.881 113.424 223.029 114.02 223.029 114.7C223.029 115.38 222.877 115.98 222.573 116.5C222.277 117.012 221.873 117.408 221.361 117.688C220.849 117.968 220.281 118.108 219.657 118.108ZM219.657 117.148C220.049 117.148 220.417 117.056 220.761 116.872C221.105 116.688 221.381 116.412 221.589 116.044C221.805 115.676 221.913 115.228 221.913 114.7C221.913 114.172 221.809 113.724 221.601 113.356C221.393 112.988 221.121 112.716 220.785 112.54C220.449 112.356 220.085 112.264 219.693 112.264C219.293 112.264 218.925 112.356 218.589 112.54C218.261 112.716 217.997 112.988 217.797 113.356C217.597 113.724 217.497 114.172 217.497 114.7C217.497 115.236 217.593 115.688 217.785 116.056C217.985 116.424 218.249 116.7 218.577 116.884C218.905 117.06 219.265 117.148 219.657 117.148ZM224.176 114.688C224.176 114.016 224.312 113.428 224.584 112.924C224.856 112.412 225.228 112.016 225.7 111.736C226.18 111.456 226.716 111.316 227.308 111.316C227.82 111.316 228.296 111.436 228.736 111.676C229.176 111.908 229.512 112.216 229.744 112.6V109.12H230.848V118H229.744V116.764C229.528 117.156 229.208 117.48 228.784 117.736C228.36 117.984 227.864 118.108 227.296 118.108C226.712 118.108 226.18 117.964 225.7 117.676C225.228 117.388 224.856 116.984 224.584 116.464C224.312 115.944 224.176 115.352 224.176 114.688ZM229.744 114.7C229.744 114.204 229.644 113.772 229.444 113.404C229.244 113.036 228.972 112.756 228.628 112.564C228.292 112.364 227.92 112.264 227.512 112.264C227.104 112.264 226.732 112.36 226.396 112.552C226.06 112.744 225.792 113.024 225.592 113.392C225.392 113.76 225.292 114.192 225.292 114.688C225.292 115.192 225.392 115.632 225.592 116.008C225.792 116.376 226.06 116.66 226.396 116.86C226.732 117.052 227.104 117.148 227.512 117.148C227.92 117.148 228.292 117.052 228.628 116.86C228.972 116.66 229.244 116.376 229.444 116.008C229.644 115.632 229.744 115.196 229.744 114.7ZM238.478 111.424L234.518 121.096H233.39L234.686 117.928L232.034 111.424H233.246L235.31 116.752L237.35 111.424H238.478Z" fill="#262524"/>
<g filter="url(#filter1_d_209_3)">
<circle cx="542" cy="167" r="30" fill="url(#paint0_linear_209_3)"/>
</g>
<g clip-path="url(#clip0_209_3)">
<path d="M542.698 155.892C544.325 155.892 545.644 154.573 545.644 152.946C545.644 151.319 544.325 150 542.698 150C541.071 150 539.752 151.319 539.752 152.946C539.752 154.573 541.071 155.892 542.698 155.892Z" fill="white"/>
<path d="M554.482 157.027C551.253 157.027 548.021 157.027 544.792 157.027C543.55 156.217 541.79 156.215 540.561 157.027C537.213 157.027 533.865 157.027 530.517 157.027C528.618 157.027 528.618 159.971 530.517 159.971C533.385 159.971 536.253 159.971 539.121 159.971C539.121 162.783 539.121 165.596 539.121 168.409C539.121 168.48 539.128 168.548 539.131 168.619C539.13 168.652 539.122 168.681 539.122 168.715C539.122 173.602 539.113 178.49 538.911 183.374C538.822 185.547 542.189 185.538 542.278 183.374C542.437 179.546 542.475 175.716 542.485 171.885C542.645 171.895 542.805 171.896 542.964 171.886C542.974 175.716 543.013 179.546 543.17 183.374C543.26 185.538 546.626 185.547 546.538 183.374C546.336 178.49 546.327 173.602 546.327 168.715C546.327 168.565 546.309 168.427 546.277 168.297C546.277 165.522 546.277 162.747 546.277 159.971C549.013 159.971 551.75 159.971 554.484 159.971C556.381 159.971 556.381 157.027 554.482 157.027Z" fill="white"/>
</g>
<rect x="95" y="262" width="60" height="60" rx="30" fill="url(#paint1_linear_209_3)"/>
<g clip-path="url(#clip1_209_3)">
<path d="M137.92 287.157C134.197 289.136 130.491 291.179 126.87 293.351C125.583 292.075 124.515 291.058 124.241 289.85C124.256 289.778 124.193 289.032 124.197 288.927C124.211 288.548 124.23 288.169 124.27 287.791C124.386 286.727 124.578 285.67 124.751 284.613C125.033 282.89 124.3 281.175 122.486 280.689C121.841 280.517 121.108 280.582 120.448 280.836C120.207 280.705 119.93 280.613 119.614 280.578C116.949 280.282 114.332 279.695 111.821 278.746C109.315 277.799 108.243 281.808 110.719 282.745C113.167 283.67 115.701 284.21 118.281 284.559C118.272 284.608 118.264 284.657 118.254 284.706C115.242 285.284 112.288 286.101 109.38 287.103C106.867 287.968 107.947 291.975 110.482 291.101C112.874 290.277 115.295 289.578 117.754 289.034C117.751 289.939 117.843 290.831 118.086 291.689C118.663 293.721 119.926 295.358 121.344 296.863C120.479 297.451 119.609 298.028 118.695 298.526C117.072 299.41 115.265 300.587 114.64 302.435C113.481 305.866 117.06 307.226 118.877 309.32C120.631 311.344 123.552 308.398 121.809 306.388C120.937 305.383 119.752 304.764 118.828 303.825C118.383 303.371 118.442 303.781 118.928 303.339C119.633 302.697 120.452 302.321 121.27 301.844C123.838 300.347 126.247 298.563 128.808 297.04C132.492 294.854 136.228 292.75 140.012 290.737C142.374 289.482 140.28 285.903 137.92 287.157Z" fill="white"/>
<path d="M126.654 281.507C128.45 281.507 129.907 280.05 129.907 278.253C129.907 276.457 128.45 275 126.654 275C124.857 275 123.4 276.457 123.4 278.253C123.4 280.05 124.857 281.507 126.654 281.507Z" fill="white"/>
</g>
<g filter="url(#filter2_d_209_3)">
<rect x="100" y="71" width="60" height="60" rx="30" fill="url(#paint2_linear_209_3)"/>
</g>
<g clip-path="url(#clip2_209_3)">
<path d="M131.125 89.7502C132.713 89.7502 134 88.463 134 86.8751C134 85.2872 132.713 84 131.125 84C129.537 84 128.25 85.2872 128.25 86.8751C128.25 88.463 129.537 89.7502 131.125 89.7502Z" fill="white"/>
<path d="M122.205 92.5069C121.565 92.7914 120.95 93.0858 120.369 93.3774C118.61 94.2607 120.156 96.8932 121.91 96.0128C122.013 95.9615 122.118 95.9144 122.221 95.8644C122.17 94.7537 122.148 93.6312 122.205 92.5069Z" fill="white"/>
<path d="M135.103 92.5046C135.196 91.9769 134.99 91.4363 134.323 91.15C131.788 90.0611 128.887 90.2961 126.125 91.0682C126.125 91.1801 126.12 91.2926 126.102 91.4062C125.959 92.332 125.929 93.13 125.947 94.0834L131.126 93.8991C131.126 93.8991 131.851 94.0899 131.311 94.3479C130.549 94.3814 125.524 94.6235 125.524 94.6235C125.462 93.3455 125.458 92.0652 125.652 90.8114C125.95 88.8862 123.01 88.0594 122.709 89.9999C122.319 92.5122 122.508 95.0033 122.655 97.5274C122.718 98.634 123.917 99.4927 124.951 98.8454C125.696 98.3784 126.414 97.8543 127.098 97.2895L127.096 98.276L127.075 108.915V117.354C127.075 118.263 127.739 119 128.674 119C129.607 119 130.366 118.263 130.366 117.354V105.292H131.859C131.859 108.118 131.859 114.568 131.859 117.395C131.859 119.363 134.912 119.363 134.912 117.395C134.912 114.568 134.912 111.742 134.912 108.917C135.534 96.1718 135.537 96.21 135.103 92.5046Z" fill="white"/>
</g>
<defs>
<filter id="filter0_d_209_3" x="0" y="0" width="363" height="240" filterUnits="userSpaceOnUse" color-interpolation-filters="sRGB">
<feFlood flood-opacity="0" result="BackgroundImageFix"/>
<feColorMatrix in="SourceAlpha" type="matrix" values="0 0 0 0 0 0 0 0 0 0 0 0 0 0 0 0 0 0 127 0" result="hardAlpha"/>
<feOffset dy="20"/>
<feGaussianBlur stdDeviation="40"/>
<feComposite in2="hardAlpha" operator="out"/>
<feColorMatrix type="matrix" values="0 0 0 0 0.2 0 0 0 0 0.305882 0 0 0 0 0.482353 0 0 0 0.3 0"/>
<feBlend mode="normal" in2="BackgroundImageFix" result="effect1_dropShadow_209_3"/>
<feBlend mode="normal" in="SourceGraphic" in2="effect1_dropShadow_209_3" result="shape"/>
</filter>
<filter id="filter1_d_209_3" x="432" y="77" width="220" height="220" filterUnits="userSpaceOnUse" color-interpolation-filters="sRGB">
<feFlood flood-opacity="0" result="BackgroundImageFix"/>
<feColorMatrix in="SourceAlpha" type="matrix" values="0 0 0 0 0 0 0 0 0 0 0 0 0 0 0 0 0 0 127 0" result="hardAlpha"/>
<feOffset dy="20"/>
<feGaussianBlur stdDeviation="40"/>
<feComposite in2="hardAlpha" operator="out"/>
<feColorMatrix type="matrix" values="0 0 0 0 0.2 0 0 0 0 0.305882 0 0 0 0 0.482353 0 0 0 0.3 0"/>
<feBlend mode="normal" in2="BackgroundImageFix" result="effect1_dropShadow_209_3"/>
<feBlend mode="normal" in="SourceGraphic" in2="effect1_dropShadow_209_3" result="shape"/>
</filter>
<filter id="filter2_d_209_3" x="86" y="61" width="88" height="88" filterUnits="userSpaceOnUse" color-interpolation-filters="sRGB">
<feFlood flood-opacity="0" result="BackgroundImageFix"/>
<feColorMatrix in="SourceAlpha" type="matrix" values="0 0 0 0 0 0 0 0 0 0 0 0 0 0 0 0 0 0 127 0" result="hardAlpha"/>
<feOffset dy="4"/>
<feGaussianBlur stdDeviation="7"/>
<feComposite in2="hardAlpha" operator="out"/>
<feColorMatrix type="matrix" values="0 0 0 0 0 0 0 0 0 0 0 0 0 0 0 0 0 0 0.09 0"/>
<feBlend mode="normal" in2="BackgroundImageFix" result="effect1_dropShadow_209_3"/>
<feBlend mode="normal" in="SourceGraphic" in2="effect1_dropShadow_209_3" result="shape"/>
</filter>
<linearGradient id="paint0_linear_209_3" x1="527.5" y1="189" x2="572" y2="146" gradientUnits="userSpaceOnUse">
<stop stop-color="#5478EF"/>
<stop offset="1" stop-color="#D6DFFF"/>
</linearGradient>
<linearGradient id="paint1_linear_209_3" x1="111.818" y1="318.364" x2="146.818" y2="269.273" gradientUnits="userSpaceOnUse">
<stop stop-color="#DD69C7"/>
<stop offset="1" stop-color="#FFC0F3"/>
</linearGradient>
<linearGradient id="paint2_linear_209_3" x1="110" y1="122" x2="160" y2="80.5" gradientUnits="userSpaceOnUse">
<stop stop-color="#4BACE1"/>
<stop offset="1" stop-color="#D8F1FF"/>
</linearGradient>
<clipPath id="clip0_209_3">
<rect width="35" height="35" fill="white" transform="translate(525 150)"/>
</clipPath>
<clipPath id="clip1_209_3">
<rect width="35" height="35" fill="white" transform="translate(107 275)"/>
</clipPath>
<clipPath id="clip2_209_3">
<rect width="35" height="35" fill="white" transform="translate(110 84)"/>
</clipPath>
</defs>
</svg>
