<svg width="20" height="20" viewBox="0 0 20 20" fill="none" xmlns="http://www.w3.org/2000/svg">
<path d="M10.0003 7.00024C9.20467 7.00024 8.44161 7.31631 7.879 7.87892C7.31639 8.44153 7.00032 9.20459 7.00032 10.0002C7.00032 10.7959 7.31639 11.559 7.879 12.1216C8.44161 12.6842 9.20467 13.0002 10.0003 13.0002C10.796 13.0002 11.559 12.6842 12.1216 12.1216C12.6842 11.559 13.0003 10.7959 13.0003 10.0002C13.0003 9.20459 12.6842 8.44153 12.1216 7.87892C11.559 7.31631 10.796 7.00024 10.0003 7.00024ZM10.0003 5.00024C11.3264 5.00024 12.5982 5.52703 13.5359 6.46471C14.4735 7.40239 15.0003 8.67416 15.0003 10.0002C15.0003 11.3263 14.4735 12.5981 13.5359 13.5358C12.5982 14.4735 11.3264 15.0002 10.0003 15.0002C8.67424 15.0002 7.40247 14.4735 6.46479 13.5358C5.5271 12.5981 5.00032 11.3263 5.00032 10.0002C5.00032 8.67416 5.5271 7.40239 6.46479 6.46471C7.40247 5.52703 8.67424 5.00024 10.0003 5.00024ZM16.5003 4.75024C16.5003 5.08176 16.3686 5.39971 16.1342 5.63413C15.8998 5.86855 15.5818 6.00024 15.2503 6.00024C14.9188 6.00024 14.6009 5.86855 14.3664 5.63413C14.132 5.39971 14.0003 5.08176 14.0003 4.75024C14.0003 4.41872 14.132 4.10078 14.3664 3.86636C14.6009 3.63194 14.9188 3.50024 15.2503 3.50024C15.5818 3.50024 15.8998 3.63194 16.1342 3.86636C16.3686 4.10078 16.5003 4.41872 16.5003 4.75024ZM10.0003 2.00024C7.52632 2.00024 7.12232 2.00724 5.97132 2.05824C5.18732 2.09524 4.66132 2.20024 4.17332 2.39024C3.73932 2.55824 3.42632 2.75924 3.09332 3.09324C2.78033 3.39564 2.53967 3.76483 2.38932 4.17324C2.19932 4.66324 2.09432 5.18824 2.05832 5.97124C2.00632 7.07524 2.00032 7.46124 2.00032 10.0002C2.00032 12.4742 2.00732 12.8782 2.05832 14.0292C2.09532 14.8122 2.20032 15.3392 2.38932 15.8262C2.55932 16.2612 2.75932 16.5742 3.09132 16.9062C3.42832 17.2422 3.74132 17.4432 4.17132 17.6092C4.66532 17.8002 5.19132 17.9062 5.97132 17.9422C7.07532 17.9942 7.46132 18.0002 10.0003 18.0002C12.4743 18.0002 12.8783 17.9932 14.0293 17.9422C14.8113 17.9052 15.3383 17.8002 15.8263 17.6112C16.2593 17.4422 16.5743 17.2412 16.9063 16.9092C17.2433 16.5722 17.4443 16.2592 17.6103 15.8292C17.8003 15.3362 17.9063 14.8092 17.9423 14.0292C17.9943 12.9252 18.0003 12.5392 18.0003 10.0002C18.0003 7.52624 17.9933 7.12224 17.9423 5.97124C17.9053 5.18924 17.8003 4.66124 17.6103 4.17324C17.4596 3.76525 17.2194 3.3962 16.9073 3.09324C16.6051 2.78009 16.2358 2.53941 15.8273 2.38924C15.3373 2.19924 14.8113 2.09424 14.0293 2.05824C12.9253 2.00624 12.5393 2.00024 10.0003 2.00024ZM10.0003 0.000244141C12.7173 0.000244141 13.0563 0.0102441 14.1223 0.0602441C15.1873 0.110244 15.9123 0.277244 16.5503 0.525244C17.2103 0.779244 17.7663 1.12324 18.3223 1.67824C18.8308 2.17814 19.2243 2.78283 19.4753 3.45024C19.7223 4.08724 19.8903 4.81324 19.9403 5.87824C19.9873 6.94424 20.0003 7.28324 20.0003 10.0002C20.0003 12.7172 19.9903 13.0562 19.9403 14.1222C19.8903 15.1872 19.7223 15.9122 19.4753 16.5502C19.225 17.218 18.8314 17.8229 18.3223 18.3222C17.8223 18.8306 17.2176 19.224 16.5503 19.4752C15.9133 19.7222 15.1873 19.8902 14.1223 19.9402C13.0563 19.9872 12.7173 20.0002 10.0003 20.0002C7.28332 20.0002 6.94432 19.9902 5.87832 19.9402C4.81332 19.8902 4.08832 19.7222 3.45032 19.4752C2.78265 19.2247 2.17785 18.8312 1.67832 18.3222C1.16973 17.8224 0.776252 17.2177 0.525321 16.5502C0.277321 15.9132 0.11032 15.1872 0.0603204 14.1222C0.0133204 13.0562 0.000320435 12.7172 0.000320435 10.0002C0.000320435 7.28324 0.0103204 6.94424 0.0603204 5.87824C0.11032 4.81224 0.277321 4.08824 0.525321 3.45024C0.775557 2.78242 1.16912 2.17757 1.67832 1.67824C2.17799 1.16948 2.78275 0.775973 3.45032 0.525244C4.08832 0.277244 4.81232 0.110244 5.87832 0.0602441C6.94432 0.0132441 7.28332 0.000244141 10.0003 0.000244141Z" fill="white"/>
</svg>
