<svg width="40" height="50" viewBox="0 0 40 50" fill="none" xmlns="http://www.w3.org/2000/svg">
<path d="M20.2836 8.41699C22.6079 8.41699 24.4921 6.53278 24.4921 4.20849C24.4921 1.88421 22.6079 0 20.2836 0C17.9593 0 16.0751 1.88421 16.0751 4.20849C16.0751 6.53278 17.9593 8.41699 20.2836 8.41699Z" fill="white"/>
<path d="M37.1176 10.0379C32.5041 10.0379 27.887 10.0379 23.2744 10.0379C21.4995 8.88177 18.9862 8.87815 17.2294 10.0379C12.4474 10.0379 7.66357 10.0379 2.88156 10.0379C0.168915 10.0379 0.168915 14.2436 2.88156 14.2436C6.97861 14.2436 11.0757 14.2436 15.1727 14.2436C15.1727 18.2619 15.1727 22.2801 15.1727 26.2992C15.1727 26.4007 15.1827 26.4976 15.1872 26.5982C15.1854 26.6462 15.1736 26.687 15.1736 26.7359C15.1736 33.7178 15.1609 40.6996 14.8728 47.6769C14.7451 50.781 19.5552 50.7683 19.6829 47.6769C19.9094 42.2082 19.9647 36.7367 19.9783 31.2643C20.2066 31.2788 20.4349 31.2806 20.6623 31.2661C20.6768 36.7376 20.7321 42.2091 20.9577 47.6769C21.0855 50.7683 25.8946 50.781 25.7678 47.6769C25.4797 40.6996 25.467 33.7178 25.467 26.7359C25.467 26.5221 25.4407 26.3237 25.3963 26.1389C25.3963 22.1741 25.3963 18.2093 25.3963 14.2436C29.304 14.2436 33.2144 14.2436 37.1194 14.2436C39.8302 14.2436 39.8302 10.0379 37.1176 10.0379Z" fill="white"/>
</svg>
