<svg width="30" height="30" viewBox="0 0 30 30" fill="none" xmlns="http://www.w3.org/2000/svg">
<path d="M29.25 26.0833V23.4773C29.25 22.1824 28.4617 21.018 27.2594 20.5371L24.0387 19.2488C22.5095 18.6371 20.7668 19.2997 20.0303 20.7728L19.75 21.3333C19.75 21.3333 15.7917 20.5417 12.625 17.375C9.45833 14.2083 8.66667 10.25 8.66667 10.25L9.22719 9.96974C10.7003 9.2332 11.3629 7.49047 10.7512 5.96131L9.46291 2.7406C8.98201 1.53835 7.81759 0.75 6.52273 0.75H3.91667C2.16777 0.75 0.75 2.16776 0.75 3.91667C0.75 17.9079 12.0921 29.25 26.0833 29.25C27.8322 29.25 29.25 27.8322 29.25 26.0833Z" fill="white"/>
</svg>
