<svg width="22" height="18" viewBox="0 0 22 18" fill="none" xmlns="http://www.w3.org/2000/svg">
<path d="M21.1618 2.65593C20.3984 2.99362 19.5888 3.2154 18.7598 3.31393C19.6336 2.79136 20.2875 1.96894 20.5998 0.999927C19.7798 1.48793 18.8808 1.82993 17.9438 2.01493C17.3144 1.34151 16.4802 0.89489 15.5708 0.744511C14.6614 0.594133 13.7278 0.748418 12.9151 1.18338C12.1024 1.61834 11.4562 2.30961 11.077 3.14972C10.6977 3.98983 10.6066 4.93171 10.8178 5.82893C9.15495 5.74558 7.52817 5.31345 6.04313 4.56059C4.55808 3.80773 3.24797 2.75097 2.19784 1.45893C1.82613 2.09738 1.63079 2.82315 1.63184 3.56193C1.63184 5.01193 2.36984 6.29293 3.49184 7.04293C2.82785 7.02202 2.17847 6.84271 1.59784 6.51993V6.57193C1.59804 7.53763 1.93221 8.47354 2.54369 9.22099C3.15517 9.96843 4.00632 10.4814 4.95284 10.6729C4.33645 10.84 3.69015 10.8646 3.06284 10.7449C3.32971 11.5762 3.84985 12.3031 4.55043 12.824C5.25102 13.3449 6.09697 13.6337 6.96984 13.6499C6.10232 14.3313 5.10902 14.8349 4.04672 15.1321C2.98442 15.4293 1.87397 15.5142 0.778839 15.3819C2.69054 16.6114 4.91594 17.264 7.18884 17.2619C14.8818 17.2619 19.0888 10.8889 19.0888 5.36193C19.0888 5.18193 19.0838 4.99993 19.0758 4.82193C19.8947 4.23009 20.6014 3.49695 21.1628 2.65693L21.1618 2.65593Z" fill="white"/>
</svg>
