<svg width="26" height="26" viewBox="0 0 26 26" fill="none" xmlns="http://www.w3.org/2000/svg">
<path d="M13 0C10.4288 0 7.91543 0.762437 5.77759 2.1909C3.63975 3.61935 1.97351 5.64968 0.989572 8.02512C0.0056327 10.4006 -0.251811 13.0144 0.249797 15.5362C0.751405 18.0579 1.98953 20.3743 3.80762 22.1924C5.6257 24.0105 7.94208 25.2486 10.4638 25.7502C12.9856 26.2518 15.5995 25.9944 17.9749 25.0104C20.3503 24.0265 22.3807 22.3603 23.8091 20.2224C25.2376 18.0846 26 15.5712 26 13C25.996 9.55341 24.6251 6.24912 22.188 3.81201C19.7509 1.3749 16.4466 0.00398351 13 0ZM17.5547 13.832L11.5547 17.832C11.4041 17.9326 11.2291 17.9904 11.0482 17.9992C10.8674 18.008 10.6875 17.9676 10.5279 17.8821C10.3683 17.7967 10.2348 17.6695 10.1418 17.5141C10.0489 17.3588 9.99985 17.1811 10 17V9C9.99985 8.81894 10.0489 8.64123 10.1418 8.48587C10.2348 8.3305 10.3683 8.20331 10.5279 8.11787C10.6875 8.03244 10.8674 7.99197 11.0482 8.00079C11.2291 8.00962 11.4041 8.0674 11.5547 8.16797L17.5547 12.168C17.6917 12.2593 17.804 12.383 17.8817 12.5281C17.9594 12.6733 18 12.8354 18 13C18 13.1646 17.9594 13.3267 17.8817 13.4719C17.804 13.617 17.6917 13.7407 17.5547 13.832Z" fill="#264373"/>
</svg>
