<svg width="20" height="16" viewBox="0 0 20 16" fill="none" xmlns="http://www.w3.org/2000/svg">
<path d="M19.5433 2.49776C20.0003 4.27976 20.0003 7.99976 20.0003 7.99976C20.0003 7.99976 20.0003 11.7198 19.5433 13.5018C19.2893 14.4868 18.5463 15.2618 17.6053 15.5238C15.8963 15.9998 10.0003 15.9998 10.0003 15.9998C10.0003 15.9998 4.10732 15.9998 2.39532 15.5238C1.45032 15.2578 0.70832 14.4838 0.45732 13.5018C0.000320464 11.7198 0.000320435 7.99976 0.000320435 7.99976C0.000320435 7.99976 0.000320464 4.27976 0.45732 2.49776C0.71132 1.51276 1.45432 0.737756 2.39532 0.475756C4.10732 -0.000244319 10.0003 -0.000244141 10.0003 -0.000244141C10.0003 -0.000244141 15.8963 -0.000244319 17.6053 0.475756C18.5503 0.741756 19.2923 1.51576 19.5433 2.49776ZM8.00032 11.4998L14.0003 7.99976L8.00032 4.49976V11.4998Z" fill="white"/>
</svg>
